<svg width="64" height="62" viewBox="0 0 64 62" fill="none" xmlns="http://www.w3.org/2000/svg">
<path d="M10.2246 54.3898H1V52.3559C1.51049 16.5776 39.6311 20.2084 44.3153 36.5932C47.7756 36.3626 48.8979 35.7229 49.9303 32.5254C52.4606 31.2458 54.0118 31.2033 55.5452 32.5254C57.0011 28.2279 57.7268 26.2299 58.7538 23.8813H61.5613L58.7538 34.5593C67.1435 49.2548 61.0133 53.7123 55.5452 54.3898C51.7754 54.5469 48.3891 54.5378 44.3153 54.3898M10.2246 54.3898C8.94955 56.9702 8.87961 58.4207 10.2246 61H31.4812C37.0516 59.7307 39.8874 58.3476 44.3153 54.3898M10.2246 54.3898H44.3153" stroke="#344F10"/>
<path d="M9.82345 29.983L11.8288 23.3729M11.8288 23.3729L7.81812 12.1864M11.8288 23.3729L17.4437 25.4067L21.0534 19.8135M7.81812 12.1864L9.82345 5.06776M7.81812 12.1864L13.8341 9.64404M21.0534 19.8135V9.64404M21.0534 19.8135L26.2672 24.8983M21.0534 9.64404L25.064 2.52539M21.0534 9.64404H27.0694" stroke="#344F10"/>
<path d="M53.9409 39.644L55.7457 42.4406M57.5506 45.2372L55.7457 42.4406M55.7457 42.4406L57.5506 39.644M55.7457 42.4406L53.1388 45.2372M33.4865 38.1185H25.8662V43.7118H33.4865V48.288H15.0374V32.0168L34.2886 33.0338L33.4865 38.1185Z" stroke="#344F10"/>
<path d="M49.9302 32.5255L51.2671 24.3899H53.9409V31.7015" stroke="#344F10"/>
<path d="M52.3366 16.7627C53.2241 15.0663 52.7701 14.1826 50.7323 12.6949C50.0884 11.1102 50.6338 10.2203 52.3366 8.62712C52.9617 7.1773 52.5464 6.27111 50.7323 4.55932C50.2956 2.77976 50.6379 2.01632 52.3366 1" stroke="#344F10"/>
<path d="M59.9572 17.2712C60.6879 15.4856 60.4762 14.4838 58.3529 12.6949C57.9102 11.5079 58.1006 10.6748 59.9572 8.62712C60.0308 7.03999 59.8635 6.15235 58.3529 4.55932C58.2912 2.7163 58.5599 1.87971 59.9572 1" stroke="#344F10"/>
<path d="M28.2727 38.6272V43.7119" stroke="#344F10"/>
<path d="M11.0267 39.644L7.81812 46.2542" stroke="#344F10"/>
<path d="M39.0026 39.6441C39.0026 40.3275 38.5837 40.6695 38.2994 40.6695C38.0151 40.6695 37.5962 40.3275 37.5962 39.6441C37.5962 38.9607 38.0151 38.6187 38.2994 38.6187C38.5837 38.6187 39.0026 38.9607 39.0026 39.6441Z" stroke="#344F10"/>
</svg>
